<svg xmlns="http://www.w3.org/2000/svg" width="16" height="16" fill="#7c7d7d" viewBox="0 0 24 24">
  <path d="M12 0C5.37 0 0 5.37 0 12c0 5.3 3.438 9.8 8.205 11.385.6.113.82-.258.82-.577 0-.285-.01-1.04-.015-2.04-3.338.724-4.042-1.612-4.042-1.612-.546-1.387-1.333-1.757-1.333-1.757-1.088-.744.082-.729.082-.729 1.204.084 1.838 1.236 1.838 1.236 1.07 1.834 2.807 1.304 3.492.996.108-.774.418-1.305.76-1.605-2.665-.3-5.467-1.337-5.467-5.933 0-1.31.47-2.38 1.235-3.22-.124-.303-.535-1.523.117-3.176 0 0 1.008-.322 3.3 1.23a11.52 11.52 0 013.003-.404c1.02.004 2.045.138 3.003.404 2.29-1.552 3.296-1.23 3.296-1.23.655 1.653.244 2.873.12 3.176.77.84 1.234 1.91 1.234 3.22 0 4.61-2.807 5.63-5.48 5.923.43.37.823 1.1.823 2.222 0 1.606-.014 2.9-.014 3.293 0 .32.216.694.825.576C20.565 21.795 24 17.3 24 12c0-6.63-5.373-12-12-12z"/>
</svg>