<svg xmlns="http://www.w3.org/2000/svg" width="16" height="16" fill="#7c7d7d" viewBox="0 0 24 24">
  <path d="M7.75 2h8.5C19.55 2 22 4.45 22 7.75v8.5c0 3.3-2.45 5.75-5.75 5.75h-8.5C4.45 22 2 19.55 2 16.25v-8.5C2 4.45 4.45 2 7.75 2zm0 1.5C5.678 3.5 4 5.178 4 7.25v8.5c0 2.07 1.678 3.75 3.75 3.75h8.5c2.072 0 3.75-1.68 3.75-3.75v-8.5c0-2.072-1.678-3.75-3.75-3.75h-8.5zm8.25 2.25a1.25 1.25 0 110 2.5 1.25 1.25 0 010-2.5zm-4.25 1.75a4.75 4.75 0 110 9.5 4.75 4.75 0 010-9.5zm0 1.5a3.25 3.25 0 100 6.5 3.25 3.25 0 000-6.5z"/>
</svg>